<mxfile host="app.diagrams.net" agent="Mozilla/5.0 (Windows NT 10.0; Win64; x64) AppleWebKit/537.36 (KHTML, like Gecko) Chrome/133.0.0.0 Safari/537.36" version="26.0.16">
  <diagram name="Page-1" id="8UziDNdSAQJ0iDzosmNS">
    <mxGraphModel dx="1944" dy="2758" grid="1" gridSize="10" guides="1" tooltips="1" connect="1" arrows="1" fold="1" page="1" pageScale="1" pageWidth="850" pageHeight="1100" math="0" shadow="0">
      <root>
        <mxCell id="0" />
        <mxCell id="1" parent="0" />
        <mxCell id="b4bsQwXQGEgThEbb4vEH-63" value="" style="rounded=1;arcSize=10;dashed=1;strokeColor=#FF0000;fillColor=none;gradientColor=none;strokeWidth=3;movable=1;resizable=1;rotatable=1;deletable=1;editable=1;locked=0;connectable=1;" vertex="1" parent="1">
          <mxGeometry x="179.99" y="-170" width="520" height="100" as="geometry" />
        </mxCell>
        <mxCell id="b4bsQwXQGEgThEbb4vEH-37" value="" style="rounded=1;arcSize=10;dashed=1;strokeColor=#FFB570;fillColor=none;gradientColor=none;strokeWidth=2;movable=1;resizable=1;rotatable=1;deletable=1;editable=1;locked=0;connectable=1;" vertex="1" parent="1">
          <mxGeometry x="155" y="-440" width="570" height="150" as="geometry" />
        </mxCell>
        <mxCell id="b4bsQwXQGEgThEbb4vEH-60" value="" style="rounded=1;arcSize=10;dashed=1;strokeColor=#FF0000;fillColor=none;gradientColor=none;strokeWidth=3;movable=1;resizable=1;rotatable=1;deletable=1;editable=1;locked=0;connectable=1;" vertex="1" parent="1">
          <mxGeometry x="180" y="-401.37" width="520" height="100" as="geometry" />
        </mxCell>
        <mxCell id="yXBtAPpHWSnMEOyGfv3l-1" value="" style="rounded=0;whiteSpace=wrap;html=1;strokeWidth=1;opacity=80;labelBackgroundColor=none;movable=1;resizable=1;rotatable=1;deletable=1;editable=1;locked=0;connectable=1;fillColor=none;strokeColor=#009900;" parent="1" vertex="1">
          <mxGeometry x="20" y="-925" width="840" height="925" as="geometry" />
        </mxCell>
        <mxCell id="b4bsQwXQGEgThEbb4vEH-3" value="" style="outlineConnect=0;dashed=0;verticalLabelPosition=bottom;verticalAlign=top;align=center;html=1;shape=mxgraph.aws3.application_load_balancer;fillColor=#F58534;gradientColor=none;movable=0;resizable=0;rotatable=0;deletable=0;editable=0;locked=1;connectable=0;" vertex="1" parent="1">
          <mxGeometry x="415" y="-840" width="50" height="50" as="geometry" />
        </mxCell>
        <mxCell id="b4bsQwXQGEgThEbb4vEH-108" style="edgeStyle=orthogonalEdgeStyle;rounded=0;orthogonalLoop=1;jettySize=auto;html=1;fontFamily=Comic Sans MS;fontSize=12;fontColor=default;fontStyle=0;" edge="1" parent="1" source="b4bsQwXQGEgThEbb4vEH-4">
          <mxGeometry relative="1" as="geometry">
            <mxPoint x="439.98" y="-950" as="targetPoint" />
          </mxGeometry>
        </mxCell>
        <mxCell id="b4bsQwXQGEgThEbb4vEH-4" value="" style="sketch=0;outlineConnect=0;fontColor=#232F3E;gradientColor=none;fillColor=#232F3D;strokeColor=none;dashed=0;verticalLabelPosition=bottom;verticalAlign=top;align=center;html=1;fontSize=12;fontStyle=0;aspect=fixed;pointerEvents=1;shape=mxgraph.aws4.user;" vertex="1" parent="1">
          <mxGeometry x="409.98" y="-1080" width="60" height="60" as="geometry" />
        </mxCell>
        <mxCell id="b4bsQwXQGEgThEbb4vEH-6" value="" style="rounded=0;whiteSpace=wrap;html=1;dashed=1;strokeWidth=2;fillColor=none;strokeColor=#66B2FF;" vertex="1" parent="1">
          <mxGeometry x="60" y="-768" width="320" height="748" as="geometry" />
        </mxCell>
        <mxCell id="b4bsQwXQGEgThEbb4vEH-12" value="" style="rounded=0;whiteSpace=wrap;html=1;dashed=1;strokeColor=#66B2FF;strokeWidth=2;fillColor=none;" vertex="1" parent="1">
          <mxGeometry x="500" y="-768" width="320" height="748" as="geometry" />
        </mxCell>
        <mxCell id="b4bsQwXQGEgThEbb4vEH-14" value="" style="rounded=0;whiteSpace=wrap;html=1;fillColor=#cdeb8b;strokeColor=#FFFFFF;opacity=20;movable=0;resizable=0;rotatable=0;deletable=0;editable=0;locked=1;connectable=0;" vertex="1" parent="1">
          <mxGeometry x="70" y="-720" width="300" height="200" as="geometry" />
        </mxCell>
        <mxCell id="b4bsQwXQGEgThEbb4vEH-17" value="" style="rounded=0;whiteSpace=wrap;html=1;fillColor=#cce5ff;strokeColor=#36393d;opacity=20;" vertex="1" parent="1">
          <mxGeometry x="70" y="-480" width="300" height="200" as="geometry" />
        </mxCell>
        <mxCell id="b4bsQwXQGEgThEbb4vEH-16" value="" style="rounded=0;whiteSpace=wrap;html=1;fillColor=#cdeb8b;strokeColor=#FFFFFF;opacity=20;" vertex="1" parent="1">
          <mxGeometry x="511" y="-720" width="300" height="200" as="geometry" />
        </mxCell>
        <mxCell id="b4bsQwXQGEgThEbb4vEH-18" value="" style="rounded=0;whiteSpace=wrap;html=1;fillColor=#cce5ff;strokeColor=#36393d;opacity=20;" vertex="1" parent="1">
          <mxGeometry x="70" y="-243" width="300" height="200" as="geometry" />
        </mxCell>
        <mxCell id="b4bsQwXQGEgThEbb4vEH-19" value="" style="rounded=0;whiteSpace=wrap;html=1;fillColor=#cce5ff;strokeColor=#36393d;opacity=20;" vertex="1" parent="1">
          <mxGeometry x="510" y="-480" width="300" height="200" as="geometry" />
        </mxCell>
        <mxCell id="b4bsQwXQGEgThEbb4vEH-20" value="" style="rounded=0;whiteSpace=wrap;html=1;fillColor=#cce5ff;strokeColor=#36393d;opacity=20;" vertex="1" parent="1">
          <mxGeometry x="510" y="-240" width="300" height="190" as="geometry" />
        </mxCell>
        <mxCell id="b4bsQwXQGEgThEbb4vEH-21" value="" style="sketch=0;outlineConnect=0;fontColor=#232F3E;gradientColor=none;fillColor=#8C4FFF;strokeColor=none;dashed=0;verticalLabelPosition=bottom;verticalAlign=top;align=center;html=1;fontSize=12;fontStyle=0;aspect=fixed;pointerEvents=1;shape=mxgraph.aws4.nat_gateway;movable=0;resizable=0;rotatable=0;deletable=0;editable=0;locked=1;connectable=0;" vertex="1" parent="1">
          <mxGeometry x="70" y="-670" width="40" height="40" as="geometry" />
        </mxCell>
        <mxCell id="b4bsQwXQGEgThEbb4vEH-22" value="" style="points=[];aspect=fixed;html=1;align=center;shadow=0;dashed=0;fillColor=#FF6A00;strokeColor=none;shape=mxgraph.alibaba_cloud.bastionhost;" vertex="1" parent="1">
          <mxGeometry x="100" y="-590" width="37.89" height="30" as="geometry" />
        </mxCell>
        <mxCell id="b4bsQwXQGEgThEbb4vEH-23" value="Public subnet 1 |&amp;nbsp;&lt;font style=&quot;color: rgb(0, 0, 0); font-size: 10px;&quot;&gt;10.0.1.0/24&lt;/font&gt;" style="points=[[0,0],[0.25,0],[0.5,0],[0.75,0],[1,0],[1,0.25],[1,0.5],[1,0.75],[1,1],[0.75,1],[0.5,1],[0.25,1],[0,1],[0,0.75],[0,0.5],[0,0.25]];outlineConnect=0;gradientColor=none;html=1;whiteSpace=wrap;fontSize=12;fontStyle=0;container=1;pointerEvents=0;collapsible=0;recursiveResize=0;shape=mxgraph.aws4.group;grIcon=mxgraph.aws4.group_security_group;grStroke=0;strokeColor=#7AA116;fillColor=#F2F6E8;verticalAlign=top;align=left;spacingLeft=30;fontColor=#248814;dashed=0;" vertex="1" parent="1">
          <mxGeometry x="80" y="-720" width="190" height="30" as="geometry" />
        </mxCell>
        <mxCell id="b4bsQwXQGEgThEbb4vEH-24" value="Public subnet 2 | &lt;font style=&quot;color: rgb(0, 0, 0); font-size: 10px;&quot;&gt;10.0.2.0/24&lt;/font&gt;" style="points=[[0,0],[0.25,0],[0.5,0],[0.75,0],[1,0],[1,0.25],[1,0.5],[1,0.75],[1,1],[0.75,1],[0.5,1],[0.25,1],[0,1],[0,0.75],[0,0.5],[0,0.25]];outlineConnect=0;gradientColor=none;html=1;whiteSpace=wrap;fontSize=12;fontStyle=0;container=1;pointerEvents=0;collapsible=0;recursiveResize=0;shape=mxgraph.aws4.group;grIcon=mxgraph.aws4.group_security_group;grStroke=0;strokeColor=#7AA116;fillColor=#F2F6E8;verticalAlign=top;align=left;spacingLeft=30;fontColor=#248814;dashed=0;" vertex="1" parent="1">
          <mxGeometry x="510" y="-720" width="190" height="30" as="geometry" />
        </mxCell>
        <mxCell id="b4bsQwXQGEgThEbb4vEH-25" value="Private subnet 1 | &lt;font style=&quot;color: rgb(0, 0, 0); font-size: 10px;&quot;&gt;10.0.11.0/24&lt;/font&gt;" style="points=[[0,0],[0.25,0],[0.5,0],[0.75,0],[1,0],[1,0.25],[1,0.5],[1,0.75],[1,1],[0.75,1],[0.5,1],[0.25,1],[0,1],[0,0.75],[0,0.5],[0,0.25]];outlineConnect=0;gradientColor=none;html=1;whiteSpace=wrap;fontSize=12;fontStyle=0;container=1;pointerEvents=0;collapsible=0;recursiveResize=0;shape=mxgraph.aws4.group;grIcon=mxgraph.aws4.group_security_group;grStroke=0;strokeColor=#00A4A6;fillColor=#E6F6F7;verticalAlign=top;align=left;spacingLeft=30;fontColor=#147EBA;dashed=0;" vertex="1" parent="1">
          <mxGeometry x="70" y="-480" width="200" height="30" as="geometry" />
        </mxCell>
        <mxCell id="b4bsQwXQGEgThEbb4vEH-26" value="Private subnet 4 | &lt;font style=&quot;font-size: 10px; color: rgb(0, 0, 0);&quot;&gt;10.0.13.0/24&lt;/font&gt;" style="points=[[0,0],[0.25,0],[0.5,0],[0.75,0],[1,0],[1,0.25],[1,0.5],[1,0.75],[1,1],[0.75,1],[0.5,1],[0.25,1],[0,1],[0,0.75],[0,0.5],[0,0.25]];outlineConnect=0;gradientColor=none;html=1;whiteSpace=wrap;fontSize=12;fontStyle=0;container=1;pointerEvents=0;collapsible=0;recursiveResize=0;shape=mxgraph.aws4.group;grIcon=mxgraph.aws4.group_security_group;grStroke=0;strokeColor=#00A4A6;fillColor=#E6F6F7;verticalAlign=top;align=left;spacingLeft=30;fontColor=#147EBA;dashed=0;" vertex="1" parent="1">
          <mxGeometry x="510" y="-243" width="190" height="30" as="geometry" />
        </mxCell>
        <mxCell id="b4bsQwXQGEgThEbb4vEH-27" value="Private subnet | &lt;font style=&quot;color: rgb(0, 0, 0);&quot; size=&quot;1&quot;&gt;10.0.12.0/24&lt;/font&gt;" style="points=[[0,0],[0.25,0],[0.5,0],[0.75,0],[1,0],[1,0.25],[1,0.5],[1,0.75],[1,1],[0.75,1],[0.5,1],[0.25,1],[0,1],[0,0.75],[0,0.5],[0,0.25]];outlineConnect=0;gradientColor=none;html=1;whiteSpace=wrap;fontSize=12;fontStyle=0;container=1;pointerEvents=0;collapsible=0;recursiveResize=0;shape=mxgraph.aws4.group;grIcon=mxgraph.aws4.group_security_group;grStroke=0;strokeColor=#00A4A6;fillColor=#E6F6F7;verticalAlign=top;align=left;spacingLeft=30;fontColor=#147EBA;dashed=0;" vertex="1" parent="1">
          <mxGeometry x="510" y="-480" width="190" height="30" as="geometry" />
        </mxCell>
        <mxCell id="b4bsQwXQGEgThEbb4vEH-28" value="Private subnet 3 | &lt;font style=&quot;color: rgb(0, 0, 0); font-size: 10px;&quot;&gt;10.0.12.0/24&lt;/font&gt;" style="points=[[0,0],[0.25,0],[0.5,0],[0.75,0],[1,0],[1,0.25],[1,0.5],[1,0.75],[1,1],[0.75,1],[0.5,1],[0.25,1],[0,1],[0,0.75],[0,0.5],[0,0.25]];outlineConnect=0;gradientColor=none;html=1;whiteSpace=wrap;fontSize=12;fontStyle=0;container=1;pointerEvents=0;collapsible=0;recursiveResize=0;shape=mxgraph.aws4.group;grIcon=mxgraph.aws4.group_security_group;grStroke=0;strokeColor=#00A4A6;fillColor=#E6F6F7;verticalAlign=top;align=left;spacingLeft=30;fontColor=#147EBA;dashed=0;" vertex="1" parent="1">
          <mxGeometry x="70" y="-240" width="190" height="30" as="geometry" />
        </mxCell>
        <mxCell id="b4bsQwXQGEgThEbb4vEH-29" value="" style="outlineConnect=0;dashed=0;verticalLabelPosition=bottom;verticalAlign=top;align=center;html=1;shape=mxgraph.aws3.ec2;fillColor=#F58534;gradientColor=none;" vertex="1" parent="1">
          <mxGeometry x="230" y="-610" width="40" height="40" as="geometry" />
        </mxCell>
        <mxCell id="b4bsQwXQGEgThEbb4vEH-32" value="" style="outlineConnect=0;dashed=0;verticalLabelPosition=bottom;verticalAlign=top;align=center;html=1;shape=mxgraph.aws3.ec2;fillColor=#F58534;gradientColor=none;" vertex="1" parent="1">
          <mxGeometry x="230" y="-374.37" width="40" height="40" as="geometry" />
        </mxCell>
        <mxCell id="b4bsQwXQGEgThEbb4vEH-33" value="" style="outlineConnect=0;dashed=0;verticalLabelPosition=bottom;verticalAlign=top;align=center;html=1;shape=mxgraph.aws3.ec2;fillColor=#F58534;gradientColor=none;" vertex="1" parent="1">
          <mxGeometry x="590" y="-610" width="40" height="40" as="geometry" />
        </mxCell>
        <mxCell id="b4bsQwXQGEgThEbb4vEH-39" value="" style="sketch=0;outlineConnect=0;fontColor=#232F3E;gradientColor=none;fillColor=#8C4FFF;strokeColor=none;dashed=0;verticalLabelPosition=bottom;verticalAlign=top;align=center;html=1;fontSize=12;fontStyle=0;aspect=fixed;pointerEvents=1;shape=mxgraph.aws4.route_table;" vertex="1" parent="1">
          <mxGeometry x="419.75" y="-609.49" width="40.53" height="39.49" as="geometry" />
        </mxCell>
        <mxCell id="b4bsQwXQGEgThEbb4vEH-43" value="" style="sketch=0;outlineConnect=0;fontColor=#232F3E;gradientColor=none;fillColor=#8C4FFF;strokeColor=none;dashed=0;verticalLabelPosition=bottom;verticalAlign=top;align=center;html=1;fontSize=12;fontStyle=0;aspect=fixed;pointerEvents=1;shape=mxgraph.aws4.route_table;" vertex="1" parent="1">
          <mxGeometry x="419.73" y="-369.49" width="40.53" height="39.49" as="geometry" />
        </mxCell>
        <mxCell id="b4bsQwXQGEgThEbb4vEH-36" value="" style="rounded=1;arcSize=10;dashed=1;strokeColor=#FFB570;fillColor=none;gradientColor=none;strokeWidth=2;movable=1;resizable=1;rotatable=1;deletable=1;editable=1;locked=0;connectable=1;" vertex="1" parent="1">
          <mxGeometry x="155" y="-680" width="570" height="150" as="geometry" />
        </mxCell>
        <mxCell id="b4bsQwXQGEgThEbb4vEH-44" value="" style="endArrow=classic;startArrow=classic;html=1;rounded=0;strokeWidth=2;entryX=0.329;entryY=0.977;entryDx=0;entryDy=0;entryPerimeter=0;" edge="1" parent="1" target="b4bsQwXQGEgThEbb4vEH-76">
          <mxGeometry width="50" height="50" relative="1" as="geometry">
            <mxPoint x="150" y="-345" as="sourcePoint" />
            <mxPoint x="90" y="-620" as="targetPoint" />
            <Array as="points">
              <mxPoint x="90" y="-345" />
            </Array>
          </mxGeometry>
        </mxCell>
        <mxCell id="b4bsQwXQGEgThEbb4vEH-48" value="" style="endArrow=classic;startArrow=classic;html=1;rounded=0;entryX=0.654;entryY=0.4;entryDx=0;entryDy=0;entryPerimeter=0;" edge="1" parent="1" target="b4bsQwXQGEgThEbb4vEH-61">
          <mxGeometry width="50" height="50" relative="1" as="geometry">
            <mxPoint x="465" y="-820" as="sourcePoint" />
            <mxPoint x="515" y="-870" as="targetPoint" />
            <Array as="points">
              <mxPoint x="490" y="-820" />
              <mxPoint x="490" y="-600" />
            </Array>
          </mxGeometry>
        </mxCell>
        <mxCell id="b4bsQwXQGEgThEbb4vEH-49" value="" style="endArrow=classic;startArrow=classic;html=1;rounded=0;exitX=0.346;exitY=0.4;exitDx=0;exitDy=0;exitPerimeter=0;" edge="1" parent="1" source="b4bsQwXQGEgThEbb4vEH-61">
          <mxGeometry width="50" height="50" relative="1" as="geometry">
            <mxPoint x="365" y="-768" as="sourcePoint" />
            <mxPoint x="415" y="-818" as="targetPoint" />
            <Array as="points">
              <mxPoint x="390" y="-600" />
              <mxPoint x="390" y="-818" />
            </Array>
          </mxGeometry>
        </mxCell>
        <mxCell id="b4bsQwXQGEgThEbb4vEH-54" value="" style="endArrow=classic;html=1;rounded=0;strokeWidth=2;entryX=0.147;entryY=0.011;entryDx=0;entryDy=0;entryPerimeter=0;exitX=0.529;exitY=0.996;exitDx=0;exitDy=0;exitPerimeter=0;" edge="1" parent="1" source="b4bsQwXQGEgThEbb4vEH-78" target="b4bsQwXQGEgThEbb4vEH-60">
          <mxGeometry width="50" height="50" relative="1" as="geometry">
            <mxPoint x="120" y="-560" as="sourcePoint" />
            <mxPoint x="230" y="-350.25687500000004" as="targetPoint" />
            <Array as="points">
              <mxPoint x="120" y="-500" />
              <mxPoint x="256" y="-500" />
            </Array>
          </mxGeometry>
        </mxCell>
        <mxCell id="b4bsQwXQGEgThEbb4vEH-61" value="" style="rounded=1;arcSize=10;dashed=1;strokeColor=#FF0000;fillColor=none;gradientColor=none;strokeWidth=3;movable=1;resizable=1;rotatable=1;deletable=1;editable=1;locked=0;connectable=1;" vertex="1" parent="1">
          <mxGeometry x="180.01000000000002" y="-640" width="520" height="100" as="geometry" />
        </mxCell>
        <mxCell id="b4bsQwXQGEgThEbb4vEH-68" value="" style="endArrow=classic;startArrow=classic;html=1;rounded=0;exitX=0.327;exitY=0.714;exitDx=0;exitDy=0;exitPerimeter=0;" edge="1" parent="1" source="b4bsQwXQGEgThEbb4vEH-60">
          <mxGeometry width="50" height="50" relative="1" as="geometry">
            <mxPoint x="370" y="-750" as="sourcePoint" />
            <mxPoint x="420" y="-800" as="targetPoint" />
            <Array as="points">
              <mxPoint x="400" y="-330" />
              <mxPoint x="400" y="-800" />
            </Array>
          </mxGeometry>
        </mxCell>
        <mxCell id="b4bsQwXQGEgThEbb4vEH-69" value="" style="endArrow=classic;startArrow=classic;html=1;rounded=0;entryX=0.673;entryY=0.714;entryDx=0;entryDy=0;entryPerimeter=0;" edge="1" parent="1" target="b4bsQwXQGEgThEbb4vEH-60">
          <mxGeometry width="50" height="50" relative="1" as="geometry">
            <mxPoint x="460" y="-800" as="sourcePoint" />
            <mxPoint x="510" y="-850" as="targetPoint" />
            <Array as="points">
              <mxPoint x="480" y="-800" />
              <mxPoint x="480" y="-330" />
            </Array>
          </mxGeometry>
        </mxCell>
        <mxCell id="b4bsQwXQGEgThEbb4vEH-70" value="" style="endArrow=classic;startArrow=classic;html=1;rounded=0;exitX=0.161;exitY=-0.014;exitDx=0;exitDy=0;exitPerimeter=0;" edge="1" parent="1" source="b4bsQwXQGEgThEbb4vEH-63">
          <mxGeometry width="50" height="50" relative="1" as="geometry">
            <mxPoint x="390" y="-230" as="sourcePoint" />
            <mxPoint x="440" y="-280" as="targetPoint" />
            <Array as="points">
              <mxPoint x="264" y="-210" />
              <mxPoint x="440" y="-210" />
            </Array>
          </mxGeometry>
        </mxCell>
        <mxCell id="b4bsQwXQGEgThEbb4vEH-71" value="Path - &quot;/&quot;" style="text;html=1;align=center;verticalAlign=middle;whiteSpace=wrap;rounded=0;" vertex="1" parent="1">
          <mxGeometry x="329.99" y="-820" width="60" height="30" as="geometry" />
        </mxCell>
        <mxCell id="b4bsQwXQGEgThEbb4vEH-72" value="VPC - 10.0.0.0/16" style="text;html=1;align=center;verticalAlign=middle;whiteSpace=wrap;rounded=0;fontFamily=Helvetica;fontStyle=0" vertex="1" parent="1">
          <mxGeometry x="70" y="-919" width="99.99" height="30" as="geometry" />
        </mxCell>
        <mxCell id="b4bsQwXQGEgThEbb4vEH-75" value="Path - &quot;/api&quot;" style="text;html=1;align=center;verticalAlign=middle;whiteSpace=wrap;rounded=0;" vertex="1" parent="1">
          <mxGeometry x="415" y="-790" width="60" height="30" as="geometry" />
        </mxCell>
        <mxCell id="b4bsQwXQGEgThEbb4vEH-76" value="&lt;font style=&quot;font-size: 8px;&quot;&gt;Main NAT Gateway&lt;/font&gt;" style="text;html=1;align=center;verticalAlign=middle;resizable=0;points=[];autosize=1;strokeColor=none;fillColor=none;" vertex="1" parent="1">
          <mxGeometry x="60" y="-640" width="90" height="30" as="geometry" />
        </mxCell>
        <mxCell id="b4bsQwXQGEgThEbb4vEH-78" value="&lt;div style=&quot;line-height: 70%;&quot;&gt;&lt;font style=&quot;line-height: 70%; font-size: 8px;&quot;&gt;Bastion&lt;/font&gt;&lt;div&gt;&lt;font style=&quot;line-height: 70%; font-size: 8px;&quot;&gt;&amp;nbsp;Host&lt;/font&gt;&lt;/div&gt;&lt;/div&gt;" style="text;html=1;align=center;verticalAlign=middle;resizable=0;points=[];autosize=1;strokeColor=none;fillColor=none;" vertex="1" parent="1">
          <mxGeometry x="93.94" y="-560" width="50" height="30" as="geometry" />
        </mxCell>
        <mxCell id="b4bsQwXQGEgThEbb4vEH-81" value="&lt;div style=&quot;line-height: 70%;&quot;&gt;&lt;font style=&quot;font-size: 10px;&quot;&gt;public_rt&lt;/font&gt;&lt;/div&gt;" style="text;html=1;align=center;verticalAlign=middle;resizable=0;points=[];autosize=1;strokeColor=none;fillColor=none;" vertex="1" parent="1">
          <mxGeometry x="409.98" y="-570" width="60" height="20" as="geometry" />
        </mxCell>
        <mxCell id="b4bsQwXQGEgThEbb4vEH-83" value="&lt;div style=&quot;line-height: 70%;&quot;&gt;&lt;span style=&quot;font-size: 10px;&quot;&gt;private_rt&lt;/span&gt;&lt;/div&gt;" style="text;html=1;align=center;verticalAlign=middle;resizable=0;points=[];autosize=1;strokeColor=none;fillColor=none;" vertex="1" parent="1">
          <mxGeometry x="401" y="-330" width="70" height="20" as="geometry" />
        </mxCell>
        <mxCell id="b4bsQwXQGEgThEbb4vEH-84" value="&lt;div style=&quot;line-height: 70%;&quot;&gt;&lt;font style=&quot;font-size: 10px;&quot;&gt;public_sg&lt;/font&gt;&lt;/div&gt;" style="text;html=1;align=center;verticalAlign=middle;resizable=0;points=[];autosize=1;strokeColor=none;fillColor=none;" vertex="1" parent="1">
          <mxGeometry x="404.98" y="-635" width="70" height="20" as="geometry" />
        </mxCell>
        <mxCell id="b4bsQwXQGEgThEbb4vEH-85" value="&lt;div style=&quot;line-height: 70%;&quot;&gt;&lt;font style=&quot;font-size: 10px;&quot;&gt;private_sg&lt;/font&gt;&lt;/div&gt;" style="text;html=1;align=center;verticalAlign=middle;resizable=0;points=[];autosize=1;strokeColor=none;fillColor=none;" vertex="1" parent="1">
          <mxGeometry x="405.01" y="-394.37" width="70" height="20" as="geometry" />
        </mxCell>
        <mxCell id="b4bsQwXQGEgThEbb4vEH-87" value="&lt;div style=&quot;line-height: 70%;&quot;&gt;&lt;span style=&quot;font-size: 10px;&quot;&gt;rds_sg&lt;/span&gt;&lt;/div&gt;" style="text;html=1;align=center;verticalAlign=middle;resizable=0;points=[];autosize=1;strokeColor=none;fillColor=none;" vertex="1" parent="1">
          <mxGeometry x="415.01" y="-160" width="50" height="20" as="geometry" />
        </mxCell>
        <mxCell id="b4bsQwXQGEgThEbb4vEH-89" value="&lt;b&gt;Web Tier&lt;/b&gt;" style="text;html=1;align=center;verticalAlign=middle;whiteSpace=wrap;rounded=0;fontFamily=Comic Sans MS;fontSize=12;fontColor=default;fontStyle=0;imageAlign=center;rotation=180;direction=west;flipV=1;flipH=1;textDirection=vertical-lr;" vertex="1" parent="1">
          <mxGeometry x="10" y="-690" width="60" height="110" as="geometry" />
        </mxCell>
        <mxCell id="b4bsQwXQGEgThEbb4vEH-92" value="&lt;b&gt;Application Tier&lt;/b&gt;" style="text;html=1;align=center;verticalAlign=middle;whiteSpace=wrap;rounded=0;fontFamily=Comic Sans MS;fontSize=12;fontColor=default;fontStyle=0;imageAlign=center;rotation=180;direction=west;flipV=0;flipH=0;textDirection=vertical-lr;" vertex="1" parent="1">
          <mxGeometry x="10" y="-435" width="60" height="110" as="geometry" />
        </mxCell>
        <mxCell id="b4bsQwXQGEgThEbb4vEH-93" value="&lt;b&gt;Database Tier&lt;/b&gt;" style="text;html=1;align=center;verticalAlign=middle;whiteSpace=wrap;rounded=0;fontFamily=Comic Sans MS;fontSize=12;fontColor=default;fontStyle=0;imageAlign=center;rotation=180;direction=west;flipV=0;flipH=0;textDirection=vertical-lr;" vertex="1" parent="1">
          <mxGeometry x="10" y="-198" width="60" height="110" as="geometry" />
        </mxCell>
        <mxCell id="b4bsQwXQGEgThEbb4vEH-52" value="" style="endArrow=classic;startArrow=classic;html=1;rounded=0;strokeWidth=1;" edge="1" parent="1">
          <mxGeometry width="50" height="50" relative="1" as="geometry">
            <mxPoint x="110" y="-645" as="sourcePoint" />
            <mxPoint x="420" y="-925" as="targetPoint" />
            <Array as="points">
              <mxPoint x="270" y="-645" />
              <mxPoint x="270" y="-925" />
              <mxPoint x="350" y="-925" />
            </Array>
          </mxGeometry>
        </mxCell>
        <mxCell id="b4bsQwXQGEgThEbb4vEH-95" value="&lt;font style=&quot;font-size: 14px; color: rgb(102, 178, 255);&quot;&gt;AZ: us-east-1a&lt;/font&gt;" style="text;html=1;align=center;verticalAlign=middle;whiteSpace=wrap;rounded=0;fontFamily=Comic Sans MS;fontSize=12;fontColor=default;fontStyle=0;" vertex="1" parent="1">
          <mxGeometry x="115" y="-770" width="110" height="40" as="geometry" />
        </mxCell>
        <mxCell id="b4bsQwXQGEgThEbb4vEH-97" value="&lt;font style=&quot;font-size: 14px; color: rgb(102, 178, 255);&quot;&gt;AZ: us-east-2&lt;/font&gt;&lt;span style=&quot;color: light-dark(rgb(102, 178, 255), rgb(37, 102, 168)); font-size: 14px; background-color: transparent;&quot;&gt;a&lt;/span&gt;" style="text;html=1;align=center;verticalAlign=middle;whiteSpace=wrap;rounded=0;fontFamily=Comic Sans MS;fontSize=12;fontColor=default;fontStyle=0;" vertex="1" parent="1">
          <mxGeometry x="580" y="-768" width="110" height="40" as="geometry" />
        </mxCell>
        <mxCell id="b4bsQwXQGEgThEbb4vEH-102" value="Region" style="sketch=0;outlineConnect=0;gradientColor=none;html=1;whiteSpace=wrap;fontSize=12;fontStyle=0;shape=mxgraph.aws4.group;grIcon=mxgraph.aws4.group_region;strokeColor=#879196;fillColor=none;verticalAlign=top;align=left;spacingLeft=30;fontColor=#879196;dashed=1;rounded=0;fontFamily=Comic Sans MS;" vertex="1" parent="1">
          <mxGeometry x="250" y="-850" width="130" height="130" as="geometry" />
        </mxCell>
        <mxCell id="b4bsQwXQGEgThEbb4vEH-103" value="Region" style="points=[[0,0],[0.25,0],[0.5,0],[0.75,0],[1,0],[1,0.25],[1,0.5],[1,0.75],[1,1],[0.75,1],[0.5,1],[0.25,1],[0,1],[0,0.75],[0,0.5],[0,0.25]];outlineConnect=0;gradientColor=none;html=1;whiteSpace=wrap;fontSize=12;fontStyle=0;container=1;pointerEvents=0;collapsible=0;recursiveResize=0;shape=mxgraph.aws4.group;grIcon=mxgraph.aws4.group_region;strokeColor=#00A4A6;fillColor=none;verticalAlign=top;align=left;spacingLeft=30;fontColor=#147EBA;dashed=1;rounded=0;fontFamily=Comic Sans MS;" vertex="1" parent="1">
          <mxGeometry x="250" y="-850" width="130" height="130" as="geometry" />
        </mxCell>
        <mxCell id="b4bsQwXQGEgThEbb4vEH-104" value="Region - us-east-1&amp;nbsp;&amp;nbsp;" style="points=[[0,0],[0.25,0],[0.5,0],[0.75,0],[1,0],[1,0.25],[1,0.5],[1,0.75],[1,1],[0.75,1],[0.5,1],[0.25,1],[0,1],[0,0.75],[0,0.5],[0,0.25]];outlineConnect=0;gradientColor=none;html=1;whiteSpace=wrap;fontSize=12;fontStyle=0;container=1;pointerEvents=0;collapsible=0;recursiveResize=0;shape=mxgraph.aws4.group;grIcon=mxgraph.aws4.group_region;strokeColor=#00A4A6;fillColor=none;verticalAlign=top;align=left;spacingLeft=30;fontColor=#147EBA;dashed=1;rounded=0;fontFamily=Comic Sans MS;" vertex="1" parent="1">
          <mxGeometry y="-958" width="880" height="978" as="geometry" />
        </mxCell>
        <mxCell id="b4bsQwXQGEgThEbb4vEH-133" value="" style="endArrow=classic;startArrow=classic;html=1;rounded=0;strokeWidth=1;" edge="1" parent="b4bsQwXQGEgThEbb4vEH-104">
          <mxGeometry width="50" height="50" relative="1" as="geometry">
            <mxPoint x="440.63" y="118" as="sourcePoint" />
            <mxPoint x="440.63" y="88" as="targetPoint" />
          </mxGeometry>
        </mxCell>
        <mxCell id="b4bsQwXQGEgThEbb4vEH-120" value="" style="sketch=0;points=[[0,0,0],[0.25,0,0],[0.5,0,0],[0.75,0,0],[1,0,0],[0,1,0],[0.25,1,0],[0.5,1,0],[0.75,1,0],[1,1,0],[0,0.25,0],[0,0.5,0],[0,0.75,0],[1,0.25,0],[1,0.5,0],[1,0.75,0]];outlineConnect=0;fontColor=#232F3E;fillColor=#C925D1;strokeColor=#ffffff;dashed=0;verticalLabelPosition=bottom;verticalAlign=top;align=center;html=1;fontSize=12;fontStyle=0;aspect=fixed;shape=mxgraph.aws4.resourceIcon;resIcon=mxgraph.aws4.rds;" vertex="1" parent="1">
          <mxGeometry x="587.5" y="-136.5" width="35" height="35" as="geometry" />
        </mxCell>
        <mxCell id="b4bsQwXQGEgThEbb4vEH-125" value="" style="rounded=0;whiteSpace=wrap;html=1;align=center;verticalAlign=middle;fontFamily=Comic Sans MS;fontSize=12;fontColor=default;fontStyle=0;fillColor=none;gradientColor=none;strokeWidth=3;movable=0;resizable=0;rotatable=0;deletable=0;editable=0;locked=1;connectable=0;" vertex="1" parent="1">
          <mxGeometry x="-80" y="-1130" width="1040" height="1240" as="geometry" />
        </mxCell>
        <mxCell id="b4bsQwXQGEgThEbb4vEH-128" value="&lt;div&gt;&lt;br&gt;&lt;/div&gt;&lt;div&gt;&lt;br&gt;&lt;/div&gt;" style="sketch=0;outlineConnect=0;fontColor=#232F3E;gradientColor=none;strokeColor=#ffffff;fillColor=#232F3E;dashed=0;verticalLabelPosition=middle;verticalAlign=bottom;align=center;html=1;whiteSpace=wrap;fontSize=10;fontStyle=1;spacing=3;shape=mxgraph.aws4.productIcon;prIcon=mxgraph.aws4.vpc;rounded=0;fontFamily=Comic Sans MS;" vertex="1" parent="1">
          <mxGeometry x="20" y="-925" width="50" height="25" as="geometry" />
        </mxCell>
        <mxCell id="b4bsQwXQGEgThEbb4vEH-129" value="&lt;font style=&quot;font-size: 10px; line-height: 80%;&quot;&gt;Internet&lt;br&gt;gateway&lt;/font&gt;" style="sketch=0;outlineConnect=0;fontColor=#232F3E;gradientColor=none;strokeColor=#232F3E;fillColor=#ffffff;dashed=0;verticalLabelPosition=bottom;verticalAlign=top;align=center;html=1;fontSize=12;fontStyle=0;aspect=fixed;shape=mxgraph.aws4.resourceIcon;resIcon=mxgraph.aws4.internet_gateway;rounded=0;fontFamily=Comic Sans MS;" vertex="1" parent="1">
          <mxGeometry x="419.75" y="-950" width="42" height="42" as="geometry" />
        </mxCell>
        <mxCell id="b4bsQwXQGEgThEbb4vEH-138" value="AWS Cloud" style="sketch=0;outlineConnect=0;gradientColor=none;html=1;whiteSpace=wrap;fontSize=12;fontStyle=0;shape=mxgraph.aws4.group;grIcon=mxgraph.aws4.group_aws_cloud;strokeColor=#858B94;fillColor=none;verticalAlign=top;align=left;spacingLeft=30;fontColor=#858B94;dashed=0;rounded=0;fontFamily=Comic Sans MS;" vertex="1" parent="1">
          <mxGeometry x="-30" y="-1000" width="940" height="1060" as="geometry" />
        </mxCell>
      </root>
    </mxGraphModel>
  </diagram>
</mxfile>
